<svg id="svg321" width="512" height="512" version="1.1" viewBox="0 0 135.47 135.47" xmlns="http://www.w3.org/2000/svg">
 <defs id="defs21">
  <linearGradient id="linearGradient911" x1="93.927" x2="123.03" y1="40.217" y2="30.956" gradientTransform="translate(.27186 9.895)" gradientUnits="userSpaceOnUse">
   <stop id="stop2" stop-color="#ebebeb" offset="0"/>
   <stop id="stop4" stop-color="#ebebeb" stop-opacity="0" offset="1"/>
  </linearGradient>
  <linearGradient id="linearGradient1708" x1="34.396" x2="43.656" y1="62.177" y2="60.854" gradientUnits="userSpaceOnUse">
   <stop id="stop7" stop-color="#fff" offset="0"/>
   <stop id="stop9" stop-color="#fff" stop-opacity="0" offset="1"/>
  </linearGradient>
  <filter id="filter1746" x="-.099585" y="-.14626" width="1.1992" height="1.2925" color-interpolation-filters="sRGB">
   <feGaussianBlur id="feGaussianBlur12" stdDeviation="6.1562916"/>
  </filter>
  <filter id="filter1928" x="-.064667" y="-.83143" width="1.1293" height="2.6629" color-interpolation-filters="sRGB">
   <feGaussianBlur id="feGaussianBlur15" stdDeviation="3.2080737"/>
  </filter>
  <filter id="filter1948" x="-.2059" y="-.85589" width="1.4118" height="2.7118" color-interpolation-filters="sRGB">
   <feGaussianBlur id="feGaussianBlur18" stdDeviation="3.3024715"/>
  </filter>
 </defs>
 <g id="g25" transform="translate(0 19.05)" display="none">
  <path id="path23" transform="matrix(.75067 0 0 .89048 18.16 12.951)" d="m-8.3308 101.34h56.939l0.32537-14.432 91.103-1.4432-0.32537-12.989h-6.5073v-72.159h-131.77v36.08h-9.761z" display="inline" fill="#000002" filter="url(#filter1746)" opacity=".05"/>
 </g>
 <g id="g31" transform="translate(-1.0576 -11.272)" fill="none" stroke="#c8c8c8" stroke-linecap="round" stroke-linejoin="round" stroke-width=".52917">
  <path id="path27" d="m19.844 105.04h-3.9688"/>
  <path id="path29" d="m121.71 105.04h-3.9688"/>
 </g>
 <path id="path33" d="m108.77 101.18a59.531 4.6302 0 0 1 2.0989 6.5457 59.531 4.6302 0 0 1-84.158 0.16407 59.531 4.6302 0 0 1-2.1202-6.5456 59.531 4.6302 0 0 1 84.158-0.16573" filter="url(#filter1928)" opacity=".1" style="paint-order:fill markers stroke"/>
 <path id="path35" transform="matrix(1 0 0 .73496 .80102 36.504)" d="m41.547 102.4a19.247 4.6302 0 0 1 0.67857 6.5456 19.247 4.6302 0 0 1-27.209 0.16408 19.247 4.6302 0 0 1-0.68545-6.5456 19.247 4.6302 0 0 1 27.208-0.16573" filter="url(#filter1948)" opacity=".1" style="paint-order:fill markers stroke"/>
 <g id="g61" transform="matrix(.57679 .15455 -.15455 .57679 61.112 52.001)">
  <circle id="circle37" transform="rotate(-15)" cx="11.927" cy="23.929" r="14.869" fill="#343a40" stroke-width=".095977"/>
  <g id="g51" transform="matrix(.092707 -.024841 .024841 .092707 -5.4714 -4.9205)" fill="#fff" fill-opacity=".94118" stroke-width="1px">
   <path id="path39" d="m97.051 285.22h-7.2251l-6.8916-24.232q-0.44462-1.584-1.1115-4.5573-0.66693-3.0012-0.80587-4.1683-0.27789 1.7785-0.91703 4.6129-0.61135 2.8344-1.0282 4.2239l-6.7249 24.121h-7.2251l-5.2521-20.341-5.3354-20.286h6.7804l5.8078 23.676q1.3616 5.6967 1.9452 10.06 0.30568-2.362 0.91703-5.2798t1.1115-4.7241l6.6137-23.732h6.5859l6.7804 23.843q0.9726 3.3068 2.0564 9.8928 0.41683-3.9738 2.0008-10.115l5.78-23.62h6.7248z"/>
   <path id="path41" d="m139.93 269.8q0 7.5307-3.8626 11.755-3.8626 4.2239-10.754 4.2239-4.3072 0-7.6141-1.9452-3.3068-1.9452-5.0853-5.5855t-1.7785-8.4478q0-7.4752 3.8348-11.671 3.8348-4.1961 10.81-4.1961 6.6693 0 10.56 4.3072 3.8904 4.2794 3.8904 11.56zm-22.37 0q0 10.643 7.8642 10.643 7.7808 0 7.7808-10.643 0-10.532-7.8364-10.532-4.1127 0-5.9746 2.7233-1.834 2.7233-1.834 7.8086z"/>
   <path id="path43" d="m174.5 285.22h-6.5581v-18.896q0-3.557-1.445-5.3076-1.4172-1.7507-4.5296-1.7507-4.1405 0-6.0579 2.4454t-1.9174 8.1976v15.312h-6.5303v-30.734h5.1131l0.91703 4.0294h0.33346q1.3894-2.1953 3.946-3.3902t5.6689-1.1949q11.06 0 11.06 11.254z"/>
   <path id="path45" d="m193.95 285.78q-5.7523 0-8.9757-4.1683-3.2235-4.1683-3.2235-11.699 0-7.5585 3.2513-11.755 3.2791-4.2239 9.0591-4.2239 6.0579 0 9.2258 4.474h0.33346q-0.47241-3.3068-0.47241-5.2243v-11.199h6.5581v43.239h-5.1131l-1.1393-4.0294h-0.30568q-3.1401 4.5851-9.198 4.5851zm1.7507-5.2798q4.0294 0 5.8634-2.2509 1.834-2.2787 1.8896-7.364v-0.91703q0-5.8078-1.8896-8.2532t-5.919-2.4454q-3.4458 0-5.3076 2.8066-1.8618 2.7789-1.8618 7.9476 0 5.1131 1.8063 7.8086 1.8063 2.6677 5.4188 2.6677z"/>
   <path id="path47" d="m232.47 285.78q-7.1695 0-11.227-4.1683-4.0294-4.1961-4.0294-11.532 0-7.5307 3.7515-11.838 3.7515-4.3072 10.31-4.3072 6.0857 0 9.6149 3.6959t3.5292 10.171v3.5292h-20.48q0.13895 4.474 2.4176 6.8916 2.2787 2.3898 6.4192 2.3898 2.7233 0 5.0575-0.5002 2.362-0.52798 5.0575-1.7229v5.3076q-2.3898 1.1393-4.8352 1.6117-2.4454 0.47241-5.5855 0.47241zm-1.1949-26.899q-3.1123 0-5.002 1.973-1.8618 1.973-2.2231 5.7522h13.95q-0.0556-3.807-1.834-5.7522-1.7785-1.973-4.8908-1.973z"/>
   <path id="path49" d="m267.42 253.93q1.973 0 3.2513 0.27789l-0.63914 6.0857q-1.3894-0.33347-2.89-0.33347-3.9182 0-6.3636 2.5566-2.4176 2.5566-2.4176 6.6415v16.062h-6.5303v-30.734h5.1131l0.86145 5.4188h0.33346q1.5284-2.7511 3.9738-4.3628 2.4732-1.6118 5.3076-1.6118z"/>
  </g>
  <g id="g59" transform="matrix(.092707 -.024841 .024841 .092707 -5.4938 -5.0039)" fill="#fff" fill-opacity=".94118" stroke-width="1px">
   <path id="path53" d="m87.926 319.71q-9.3634 0-14.5 7.0627-5.1365 7.0092-5.1365 19.583 0 26.164 19.636 26.164 8.2398 0 19.957-4.1199v13.911q-9.6309 4.0129-21.509 4.0129-17.068 0-26.11-10.326-9.0424-10.38-9.0424-29.749 0-12.199 4.4409-21.349 4.4409-9.2029 12.734-14.072 8.3468-4.9225 19.529-4.9225 11.397 0 22.9 5.511l-5.3505 13.483q-4.3874-2.0867-8.8283-3.6383t-8.7213-1.5516z"/>
   <path id="path55" d="m157.59 385.25-18.834-61.37h-0.48155q1.0166 18.727 1.0166 24.987v36.383h-14.821v-78.224h22.579l18.513 59.819h0.32103l19.636-59.819h22.579v78.224h-15.463v-37.026q0-2.6218 0.0535-6.0461 0.10701-3.4243 0.74907-18.192h-0.48154l-20.171 61.263z"/>
   <path id="path57" d="m274.02 363.53q0 10.594-7.6512 16.694-7.5977 6.0996-21.188 6.0996-12.52 0-22.151-4.7084v-15.409q7.9188 3.5313 13.376 4.976 5.511 1.4446 10.059 1.4446 5.4575 0 8.3468-2.0867 2.9428-2.0867 2.9428-6.2066 0-2.3007-1.2841-4.0664-1.2841-1.8192-3.7988-3.4778-2.4612-1.6587-10.112-5.297-7.1697-3.3708-10.755-6.4741-3.5848-3.1033-5.725-7.2232t-2.1402-9.6309q0-10.38 7.0092-16.319 7.0627-5.9391 19.476-5.9391 6.0996 0 11.611 1.4446 5.5645 1.4446 11.611 4.0664l-5.3505 12.895q-6.2601-2.5682-10.38-3.5848-4.0664-1.0166-8.0258-1.0166-4.7084 0-7.2232 2.1937t-2.5147 5.725q0 2.1937 1.0166 3.8524 1.0166 1.6052 3.2103 3.1568 2.2472 1.4981 10.54 5.4575 10.969 5.2435 15.035 10.54 4.0664 5.2435 4.0664 12.895z"/>
  </g>
 </g>
 <circle id="circle63" transform="rotate(-15)" cx="11.473" cy="27.944" r="12.01" fill="#4d4d4d" stroke-width=".07752"/>
 <g fill="#fff">
  <g id="g77" transform="matrix(.074879 -.020064 .020064 .074879 -.4115 3.8729)" fill-opacity=".94118" stroke-width="1px">
   <path id="path65" d="m97.051 285.22h-7.2251l-6.8916-24.232q-0.44462-1.584-1.1115-4.5573-0.66693-3.0012-0.80587-4.1683-0.27789 1.7785-0.91703 4.6129-0.61135 2.8344-1.0282 4.2239l-6.7249 24.121h-7.2251l-5.2521-20.341-5.3354-20.286h6.7804l5.8078 23.676q1.3616 5.6967 1.9452 10.06 0.30568-2.362 0.91703-5.2798t1.1115-4.7241l6.6137-23.732h6.5859l6.7804 23.843q0.9726 3.3068 2.0564 9.8928 0.41683-3.9738 2.0008-10.115l5.78-23.62h6.7248z"/>
   <path id="path67" d="m139.93 269.8q0 7.5307-3.8626 11.755-3.8626 4.2239-10.754 4.2239-4.3072 0-7.6141-1.9452-3.3068-1.9452-5.0853-5.5855t-1.7785-8.4478q0-7.4752 3.8348-11.671 3.8348-4.1961 10.81-4.1961 6.6693 0 10.56 4.3072 3.8904 4.2794 3.8904 11.56zm-22.37 0q0 10.643 7.8642 10.643 7.7808 0 7.7808-10.643 0-10.532-7.8364-10.532-4.1127 0-5.9746 2.7233-1.834 2.7233-1.834 7.8086z"/>
   <path id="path69" d="m174.5 285.22h-6.5581v-18.896q0-3.557-1.445-5.3076-1.4172-1.7507-4.5296-1.7507-4.1405 0-6.0579 2.4454t-1.9174 8.1976v15.312h-6.5303v-30.734h5.1131l0.91703 4.0294h0.33346q1.3894-2.1953 3.946-3.3902t5.6689-1.1949q11.06 0 11.06 11.254z"/>
   <path id="path71" d="m193.95 285.78q-5.7523 0-8.9757-4.1683-3.2235-4.1683-3.2235-11.699 0-7.5585 3.2513-11.755 3.2791-4.2239 9.0591-4.2239 6.0579 0 9.2258 4.474h0.33346q-0.47241-3.3068-0.47241-5.2243v-11.199h6.5581v43.239h-5.1131l-1.1393-4.0294h-0.30568q-3.1401 4.5851-9.198 4.5851zm1.7507-5.2798q4.0294 0 5.8634-2.2509 1.834-2.2787 1.8896-7.364v-0.91703q0-5.8078-1.8896-8.2532t-5.919-2.4454q-3.4458 0-5.3076 2.8066-1.8618 2.7789-1.8618 7.9476 0 5.1131 1.8063 7.8086 1.8063 2.6677 5.4188 2.6677z"/>
   <path id="path73" d="m232.47 285.78q-7.1695 0-11.227-4.1683-4.0294-4.1961-4.0294-11.532 0-7.5307 3.7515-11.838 3.7515-4.3072 10.31-4.3072 6.0857 0 9.6149 3.6959t3.5292 10.171v3.5292h-20.48q0.13895 4.474 2.4176 6.8916 2.2787 2.3898 6.4192 2.3898 2.7233 0 5.0575-0.5002 2.362-0.52798 5.0575-1.7229v5.3076q-2.3898 1.1393-4.8352 1.6117-2.4454 0.47241-5.5855 0.47241zm-1.1949-26.899q-3.1123 0-5.002 1.973-1.8618 1.973-2.2231 5.7522h13.95q-0.0556-3.807-1.834-5.7522-1.7785-1.973-4.8908-1.973z"/>
   <path id="path75" d="m267.42 253.93q1.973 0 3.2513 0.27789l-0.63914 6.0857q-1.3894-0.33347-2.89-0.33347-3.9182 0-6.3636 2.5566-2.4176 2.5566-2.4176 6.6415v16.062h-6.5303v-30.734h5.1131l0.86145 5.4188h0.33346q1.5284-2.7511 3.9738-4.3628 2.4732-1.6118 5.3076-1.6118z"/>
  </g>
  <g id="g85" transform="matrix(.074879 -.020064 .020064 .074879 -.42959 3.8055)" fill-opacity=".94118" stroke-width="1px">
   <path id="path79" d="m87.926 319.71q-9.3634 0-14.5 7.0627-5.1365 7.0092-5.1365 19.583 0 26.164 19.636 26.164 8.2398 0 19.957-4.1199v13.911q-9.6309 4.0129-21.509 4.0129-17.068 0-26.11-10.326-9.0424-10.38-9.0424-29.749 0-12.199 4.4409-21.349 4.4409-9.2029 12.734-14.072 8.3468-4.9225 19.529-4.9225 11.397 0 22.9 5.511l-5.3505 13.483q-4.3874-2.0867-8.8283-3.6383t-8.7213-1.5516z"/>
   <path id="path81" d="m157.59 385.25-18.834-61.37h-0.48155q1.0166 18.727 1.0166 24.987v36.383h-14.821v-78.224h22.579l18.513 59.819h0.32103l19.636-59.819h22.579v78.224h-15.463v-37.026q0-2.6218 0.0535-6.0461 0.10701-3.4243 0.74907-18.192h-0.48154l-20.171 61.263z"/>
   <path id="path83" d="m274.02 363.53q0 10.594-7.6512 16.694-7.5977 6.0996-21.188 6.0996-12.52 0-22.151-4.7084v-15.409q7.9188 3.5313 13.376 4.976 5.511 1.4446 10.059 1.4446 5.4575 0 8.3468-2.0867 2.9428-2.0867 2.9428-6.2066 0-2.3007-1.2841-4.0664-1.2841-1.8192-3.7988-3.4778-2.4612-1.6587-10.112-5.297-7.1697-3.3708-10.755-6.4741-3.5848-3.1033-5.725-7.2232t-2.1402-9.6309q0-10.38 7.0092-16.319 7.0627-5.9391 19.476-5.9391 6.0996 0 11.611 1.4446 5.5645 1.4446 11.611 4.0664l-5.3505 12.895q-6.2601-2.5682-10.38-3.5848-4.0664-1.0166-8.0258-1.0166-4.7084 0-7.2232 2.1937t-2.5147 5.725q0 2.1937 1.0166 3.8524 1.0166 1.6052 3.2103 3.1568 2.2472 1.4981 10.54 5.4575 10.969 5.2435 15.035 10.54 4.0664 5.2435 4.0664 12.895z"/>
  </g>
  <path id="path89" d="m123.69 18.22a13.229 13.891 0 0 1 0.46641 19.637 13.229 13.891 0 0 1-18.702 0.49222 13.229 13.891 0 0 1-0.47114-19.637 13.229 13.891 0 0 1 18.702-0.49719" style="paint-order:fill markers stroke"/>
 </g>
 <path id="path91" d="m113 26.279a0.56441 0.56441 0 0 0 0-0.79839 0.56441 0.56441 0 0 0-0.79839 0 0.56411 0.56411 0 0 0 0 0.79839 0.5647 0.5647 0 0 0 0.79839 0zm-2.0173 0.42187a0.56411 0.56411 0 0 0 0 0.79839 0.5647 0.5647 0 0 0 0.79839 0 0.56455 0.56455 0 1 0-0.79839-0.79839zm3.4995 0.29671a0.88335 0.88335 0 0 0-1.2493 0l-0.73477 0.73477a0.88306 0.88306 0 0 0 0 1.2493l0.80663 0.80692a0.88335 0.88335 0 0 0 1.2493 0l0.73478-0.73477a0.8835 0.8835 0 0 0 0-1.2494zm7.0846-2.6508c0.93224-1.7755-0.38653-2.8126-1.2932-3.6639-1.452-1.365-2.9004-1.9552-4.5546-0.06509-1.6532 1.8901-0.60284 4.0822 0.90927 5.164 1.5128 1.082 4.0047 0.34 4.9384-1.4351zm-2.5047-0.72815c-0.58267-0.69826 0.50639-1.9661 1.1898-1.2089 1.2584 1.3946-0.60622 1.9072-1.1898 1.2089zm-7.2743-11.319c-10.409 0-18.848 8.4386-18.848 18.847 0 10.409 8.4387 18.849 18.848 18.849 10.409 0 18.848-8.4392 18.848-18.849 0-10.409-8.4386-18.847-18.848-18.847zm10.192 21.936c-1.9655-1.2989-3.0886-2.3965-4.067-4.3643-0.66895 1.3484-2.231 3.3532-4.866 4.9302-1.3155 4.0924-7.5733 11.924-9.5986 10.814-0.5996-0.32837-0.71357-0.76084-0.5781-1.2072 0.14548-1.1187 2.4597-3.6899 2.4597-3.6899s0.0489 0.53952 0.78926 1.6761c-0.97774-3.0357 1.6158-6.7814 2.3028-8.0566 1.0796-0.34413 1.1578-1.7302 1.1578-1.7302 0.0691-2.1428-0.88806-3.694-1.8156-4.6219 0.66631 0.8134 0.88203 2.0425 0.91369 3.1682v6e-3c3e-3 0.12722 3e-3 0.25209 3e-3 0.37651-0.0317 0.9318-0.31364 2.219-0.91663 2.219l2e-3 8e-3c-0.62006-0.0265-1.3856 0.10573-2.0696 0.31954l-1.5122 0.36149s0.80648-0.037 1.2419 0.33927c-0.48489 0.7897-1.5628 1.7698-2.765 2.3265-1.749 0.8112-2.2517-0.8028-1.3637-1.8524a5.7103 5.7103 0 0 1 0.64643-0.65011c-0.134-0.13871-0.21852-0.32454-0.24076-0.56028-1.5e-4 -1e-3 -9.5e-4 -2e-3 -1e-3 -4e-3 -0.12192-0.53554-0.0546-1.2309 0.70312-2.3358a5.8479 5.8479 0 0 1 0.54394-0.7174c7e-3 -8e-3 0.0125-0.0161 0.0196-0.0242 9e-3 -0.0112 0.0194-0.0218 0.029-0.0328 5e-3 -6e-3 0.0107-0.0121 0.0164-0.0184 0.054-0.0615 0.11162-0.12163 0.17317-0.17965 0.90308-0.92502 2.3295-1.887 4.5774-2.7503 2.6213-3.8532 3.5814-4.5759 3.5814-4.5759 0.29008-0.29671 0.7975-0.66572 0.98392-0.75981-1.369-2.378-1.6454-5.7313-1.2867-6.635a1.2989 1.2989 0 0 0-0.078 0.15078c0.13296-0.30952 0.22205-0.40891 0.36017-0.57177 0.37387-0.44234 1.641-0.67411 2.096 0.26284 0.24237 0.49962 0.28817 1.1466 0.28007 1.6318-1.0034-0.05228-1.9136 1.0935-1.9136 1.0935s0.83122-0.39227 1.8637-0.39905c0 0 0.27521 0.23913 0.61845 0.68869-0.46354 0.87054-1.2257 2.7148-0.67382 4.651 0.0916 0.38152 0.22972 0.70945 0.40155 0.98849 7e-3 0.01188 0.0121 0.02401 0.0187 0.03652 0.0138 0.01797 0.0262 0.03298 0.039 0.04963 0.91266 1.3738 2.5853 1.5346 2.5853 1.5346a4.3073 4.3073 0 0 1-1.8465-1.7773c-0.2169-0.40582-0.34987-0.74832-0.43145-1.0185-0.44292-1.7107 0.2091-2.7094 0.58237-3.3788 0.85876-1.3322 2.4233-2.1387 4.1049-1.9466 2.36 0.26947 4.0551 2.401 3.7853 4.7604-0.16447 1.4416-1.0244 2.6339-2.2058 3.2826 0.28419 0.76909-0.0196 1.7015-0.0196 1.7015 0.71548 0.90014 0.74699 1.4189 0.72225 1.901-0.90926-0.15314-1.7928 0.46075-1.7928 0.46075s1.7543-0.41878 2.7736 0.49034c0.66277 0.71283 1.105 1.3572 1.3684 1.833 0.37726 0.67882 2.1292 0.72712 1.9297 1.9477-0.19952 1.2186-1.5358 1.2303-3.6306-0.15182z" fill="#4d4d4d" stroke-width=".14725"/>
 <path id="path93" d="m20.273 90.048v-62.177c0-1.3229 1.3229-2.6458 2.6458-2.6458h92.604c1.3229 0 2.6458 1.3229 2.6458 2.6458v62.177z" fill="#4d4d4d" stroke="#aaa" stroke-width=".52917"/>
 <path id="path95" d="m71.71 26.624a0.66146 0.66146 0 0 1 0.02332 0.93509 0.66146 0.66146 0 0 1-0.93509 0.02344 0.66146 0.66146 0 0 1-0.02356-0.93509 0.66146 0.66146 0 0 1 0.93508-0.02368" fill="#ff0002" opacity=".521" style="paint-order:fill markers stroke"/>
 <rect id="rect97" x="24.085" y="28.945" width="89.958" height="58.208" fill="#ebebeb" style="paint-order:fill markers stroke"/>
 <path id="path99" d="m8.2093 89.798h121.71v2.6458h-121.71z" fill="#d2d3d5"/>
 <path id="path101" d="m68.518 26.563a0.74417 0.74417 0 0 1 0.02624 1.052 0.74417 0.74417 0 0 1-1.052 0.02637 0.74417 0.74417 0 0 1-0.0265-1.052 0.74417 0.74417 0 0 1 1.052-0.02664" fill="#f0f0f0" opacity=".495" style="paint-order:fill markers stroke"/>
 <path id="path103" d="m8.2093 92.448c1.3229 1.3229 1.3229 1.3229 2.6458 1.3229h116.42c1.3229 1e-5 1.3229 1e-5 2.6458-1.3229z" fill="#c8c8c8"/>
 <path id="path105" d="m124.62 90.588a0.66146 0.66146 0 0 1 0.0233 0.93509 0.66146 0.66146 0 0 1-0.93509 0.0234 0.66146 0.66146 0 0 1-0.0236-0.93508 0.66146 0.66146 0 0 1 0.93509-0.0237" fill="#ff0002" opacity=".521" style="paint-order:fill markers stroke"/>
 <rect id="rect107" x="25.407" y="30.268" width="87.312" height="17.198" fill="#3b9ab4" style="paint-order:fill markers stroke"/>
 <path id="path109" d="m59.803 89.798 1.3229 1.3229h14.552l1.3229-1.3229z" fill="#e2e2e1"/>
 <rect id="rect111" x="34.668" y="65.986" width="7.9375" height="1.3229" fill="#555" style="paint-order:fill markers stroke"/>
 <g id="g123" transform="translate(.27185 7.778)" fill="#828282">
  <rect id="rect113" transform="translate(0,-19.05)" x="34.396" y="81.227" width="6.6146" height="1.3229" style="paint-order:fill markers stroke"/>
  <rect id="rect115" transform="translate(0,-19.05)" x="34.396" y="83.873" width="7.9375" height="1.3229" style="paint-order:fill markers stroke"/>
  <rect id="rect117" transform="translate(0,-19.05)" x="42.333" y="81.227" width="2.6458" height="1.3229" style="paint-order:fill markers stroke"/>
  <rect id="rect119" transform="translate(0,-19.05)" x="34.396" y="86.519" width="2.6458" height="1.3229" style="paint-order:fill markers stroke"/>
  <rect id="rect121" transform="translate(0,-19.05)" x="38.365" y="86.519" width="2.6458" height="1.3229" style="paint-order:fill markers stroke"/>
 </g>
 <rect id="rect125" x="43.928" y="65.986" width="3.9687" height="1.3229" fill="#555" style="paint-order:fill markers stroke"/>
 <g id="g131" transform="matrix(.096635 0 0 .096635 51.439 51.437)" fill="none" stroke="#4d4d4d" stroke-width="5">
  <path id="path127" d="m93.094 43.16-54.58 21.895-2.4415-6.1433 18.509-28.747h30.086l18.272 28.747-2.9929 8.1122-19.139-18.351"/>
  <path id="path129" d="m33.867 106.64 19.532-4.7256 3.5442 8.8211h25.518l3.5442-8.8211 19.375 4.7256"/>
 </g>
 <rect id="rect133" x="51.866" y="65.986" width="5.2917" height="1.3229" fill="#555" style="paint-order:fill markers stroke"/>
 <g id="g145" transform="translate(.27185 7.778)" fill="#828282">
  <rect id="rect135" transform="translate(0,-19.05)" x="51.594" y="81.227" width="6.6146" height="1.3229" style="paint-order:fill markers stroke"/>
  <rect id="rect137" transform="translate(0,-19.05)" x="51.594" y="83.873" width="7.9375" height="1.3229" style="paint-order:fill markers stroke"/>
  <rect id="rect139" transform="translate(0,-19.05)" x="59.531" y="81.227" width="2.6458" height="1.3229" style="paint-order:fill markers stroke"/>
  <rect id="rect141" transform="translate(0,-19.05)" x="51.594" y="86.519" width="2.6458" height="1.3229" style="paint-order:fill markers stroke"/>
  <rect id="rect143" transform="translate(0,-19.05)" x="55.563" y="86.519" width="2.6458" height="1.3229" style="paint-order:fill markers stroke"/>
 </g>
 <rect id="rect147" x="62.449" y="65.986" width="2.6458" height="1.3229" fill="#555" style="paint-order:fill markers stroke"/>
 <rect id="rect149" x="58.48" y="65.986" width="2.6458" height="1.3229" fill="#555" style="paint-order:fill markers stroke"/>
 <path id="path151" d="m72.664 56.784 1.6685 4.5699c-1.1671-0.56548-1.971-1.7622-1.971-3.1463 0-0.50795 0.1085-0.98795 0.30247-1.4236zm5.5546 1.2477c0-0.43233-0.15452-0.73151-0.28767-0.96494-0.17754-0.28767-0.34356-0.5326-0.34356-0.82028 0-0.3222 0.24329-0.62138 0.58685-0.62138 0.01479 0 0.02958 0.0016 0.04603 0.0033-0.62302-0.57041-1.4515-0.91891-2.3622-0.91891-1.2214 0-2.2965 0.6263-2.9228 1.5764 0.0822 0.0033 0.15945 5e-3 0.22521 5e-3 0.36494 0 0.93206-0.04438 0.93206-0.04438 0.18904-0.01151 0.21041 0.2663 0.02301 0.28767 0 0-0.18904 0.02136-0.39945 0.03286l1.274 3.7874 0.76603-2.2948-0.54411-1.4926c-0.18904-0.0115-0.36658-0.03286-0.36658-0.03286-0.18904-0.0115-0.16603-0.29918 0.02136-0.28767 0 0 0.57699 0.04438 0.92055 0.04438 0.36493 0 0.93206-0.04438 0.93206-0.04438 0.18904-0.01151 0.21041 0.2663 0.02302 0.28767 0 0-0.18904 0.02136-0.39945 0.03286l1.2641 3.7595 0.34849-1.1655c0.14795-0.48329 0.26301-0.83014 0.26301-1.1293zm-2.2997 0.48165-1.0488 3.0493c0.31397 0.09205 0.64439 0.14301 0.98795 0.14301 0.40768 0 0.79726-0.07068 1.1606-0.1989-0.0099-0.0148-0.01809-0.03124-0.02465-0.04767zm3.0082-1.9841c0.01479 0.11178 0.02302 0.23014 0.02302 0.36 0 0.35507-0.06574 0.75288-0.2663 1.2526l-1.0685 3.0888c1.0406-0.60658 1.7392-1.7326 1.7392-3.023 0-0.60822-0.15452-1.1803-0.4274-1.6784zm1.0077 1.6784c0 2.2488-1.8296 4.0767-4.0767 4.0767-2.2488 0-4.0767-1.8296-4.0767-4.0767 0-2.2488 1.828-4.0767 4.0767-4.0767 2.2471 0 4.0767 1.828 4.0767 4.0767zm-0.1874 0c0-2.1452-1.7458-3.8893-3.8893-3.8893-2.1452 0-3.8893 1.7441-3.8893 3.8893s1.7458 3.8893 3.8893 3.8893c2.1452 0 3.8893-1.7441 3.8893-3.8893z" fill="#4d4d4d" stroke-width=".016438"/>
 <rect id="rect153" x="69.064" y="65.986" width="3.9688" height="1.3229" fill="#555" style="paint-order:fill markers stroke"/>
 <g id="g165" transform="translate(.27185 7.778)" fill="#828282">
  <rect id="rect155" transform="translate(0,-19.05)" x="68.792" y="81.227" width="6.6146" height="1.3229" style="paint-order:fill markers stroke"/>
  <rect id="rect157" transform="translate(0,-19.05)" x="68.792" y="83.873" width="7.9375" height="1.3229" style="paint-order:fill markers stroke"/>
  <rect id="rect159" transform="translate(0,-19.05)" x="76.729" y="81.227" width="2.6458" height="1.3229" style="paint-order:fill markers stroke"/>
  <rect id="rect161" transform="translate(0,-19.05)" x="68.792" y="86.519" width="2.6458" height="1.3229" style="paint-order:fill markers stroke"/>
  <rect id="rect163" transform="translate(0,-19.05)" x="72.76" y="86.519" width="2.6458" height="1.3229" style="paint-order:fill markers stroke"/>
 </g>
 <rect id="rect167" x="74.355" y="65.986" width="7.9375" height="1.3229" fill="#4d4d4d" style="paint-order:fill markers stroke"/>
 <g id="g173" transform="matrix(.074994 0 0 .074994 87.78 41.154)" fill="#4d4d4d">
  <path id="path169" d="m32.189 175.49h29.466v106.08c-8.7392 2.2016-20.645 2.2016-29.466 0z"/>
  <path id="path171" d="m70.496 175.49h29.466c4.42 19.153 4.42 36.833 0 53.04h-29.466z"/>
 </g>
 <rect id="rect175" x="86.262" y="65.986" width="2.6458" height="1.3229" fill="#555" style="paint-order:fill markers stroke"/>
 <g id="g187" transform="translate(.27185 7.778)" fill="#828282">
  <rect id="rect177" transform="translate(0,-19.05)" x="85.99" y="81.227" width="6.6146" height="1.3229" style="paint-order:fill markers stroke"/>
  <rect id="rect179" transform="translate(0,-19.05)" x="85.99" y="83.873" width="7.9375" height="1.3229" style="paint-order:fill markers stroke"/>
  <rect id="rect181" transform="translate(0,-19.05)" x="93.927" y="81.227" width="2.6458" height="1.3229" style="paint-order:fill markers stroke"/>
  <rect id="rect183" transform="translate(0,-19.05)" x="85.99" y="86.519" width="2.6458" height="1.3229" style="paint-order:fill markers stroke"/>
  <rect id="rect185" transform="translate(0,-19.05)" x="89.958" y="86.519" width="2.6458" height="1.3229" style="paint-order:fill markers stroke"/>
 </g>
 <rect id="rect189" x="96.845" y="65.986" width="2.6458" height="1.3229" fill="#555" style="paint-order:fill markers stroke"/>
 <rect id="rect191" x="90.23" y="65.986" width="5.2917" height="1.3229" fill="#555" style="paint-order:fill markers stroke"/>
 <rect id="rect193" x="25.407" y="82.774" width="87.312" height="3.0556" fill="#9cb1bd" style="paint-order:fill markers stroke"/>
 <path id="path195" d="m59.803 89.798h17.198" fill="none" stroke="#000" stroke-linecap="round" stroke-linejoin="round" stroke-width=".52917"/>
 <rect id="rect197" x="24.085" y="87.682" width="10.583" height="1.3229" fill="#828282" opacity=".507" style="paint-order:fill markers stroke"/>
 <g id="g211" transform="translate(.27185 7.778)" fill="#fff">
  <rect id="rect199" transform="translate(0,-19.05)" x="93.927" y="42.863" width="6.6146" height="1.3229" opacity=".5" style="paint-order:fill markers stroke"/>
  <rect id="rect201" transform="translate(0,-19.05)" x="34.396" y="45.508" width="21.167" height="1.3229" opacity=".5" style="paint-order:fill markers stroke"/>
  <rect id="rect203" transform="translate(0,-19.05)" x="34.396" y="49.477" width="10.583" height="1.3229" opacity=".5" style="paint-order:fill markers stroke"/>
  <rect id="rect205" transform="translate(0,-19.05)" x="34.396" y="52.123" width="10.583" height="1.3229" opacity=".5" style="paint-order:fill markers stroke"/>
  <rect id="rect207" transform="translate(0,-19.05)" x="34.396" y="94.985" width="5.2917" height="1.3229" opacity=".5" style="paint-order:fill markers stroke"/>
  <rect id="rect209" transform="translate(0,-19.05)" x="79.375" y="94.985" width="21.167" height="1.3229" opacity=".5" style="paint-order:fill markers stroke"/>
 </g>
 <path id="path213" d="m104.78 89.798h13.229v-64.823h-31.75z" fill="url(#linearGradient911)" opacity=".154"/>
 <path id="path215" d="m129.92 89.798h-19.844l1.3229 2.6458-1.3229 1.3229h17.198c1.3229 1e-5 1.3229 0 2.6458-1.3229z" fill="#fff" opacity=".25"/>
 <path id="path217" d="m8.2093 89.798v2.6458c1.3229 1.3229 1.3229 1.3229 2.6458 1.3229h11.906l-2.6458-1.3229v-2.6458z" opacity=".05"/>
 <g id="g231" transform="matrix(.82689 0 0 .82689 13.704 19.263)" stroke="#343a40">
  <path id="path219" d="m33.073 43.762c-0.08285-0.11675-0.30215 1.0888-0.65984 2.3132-0.09835 0.33658 0.04148 0.67616 0.09221 0.97063 0.08523 0.14957 0.1699 0.36791 0.2417 0.64002 0.0242 0.09167 0.04528 0.18505 0.06412 0.27848-0.19887 0.50392-0.31112 1.0749-0.31112 1.6802 0 0.55752 0.09567 1.0858 0.26608 1.5595 0.321 0.24249 0.63249 0.59539 0.88829 1.034 0.1197 0.20523 0.21858 0.41534 0.29738 0.62407 0.40961 0.29852 0.88192 0.46914 1.3849 0.46914 0.47504 0 0.92262-0.15201 1.316-0.42029 0.0815-0.22478 0.1769-0.45745 0.31537-0.67292 0.27408-0.4264 0.61204-0.83608 0.9572-1.0843 0.23914-0.38066 0.27031-0.94926 0.24806-1.5092-0.02311-0.58104-0.10384-1.1314-0.28833-1.6205 0.01597-0.11882 0.03581-0.23768 0.06043-0.35454 0.06195-0.29435 0.14165-0.52779 0.22526-0.68088 0.033-0.28796 0.14458-0.62057 0.03869-0.94246-0.42252-1.2845-0.36885-0.19666-0.49186-0.09372-0.15553 0.13018-0.97794-1.1466-0.94555 0.12281 0.0035 0.13847 0.01101 0.27373 0.02172 0.40525-0.42586-0.33204-0.94127 0.07796-1.474 0.07796-0.5461 0-1.0391-0.40019-1.4719-0.05259 0.0057-0.14869 0.0067-0.30233 0.0027-0.4597-0.03241-1.2695-0.26229-1.5581-0.77755-2.2841z" fill="none" stroke-width=".49387"/>
  <g id="g227" fill="#343a40">
   <path id="path221" d="m35.284 51.204c-0.20345 0-0.66944 0.39861-0.66944 0.67132 0 0.07468 0.02303 0.14537 0.06406 0.20882 0.07726 0.03247 0.15223 0.07974 0.21381 0.13852 0.0288 0.02747 0.05259 0.0556 0.07155 0.08357 0.09859 0.03998 0.2123 0.06281 0.33337 0.06281 0.11438 0 0.2221-0.02035 0.31677-0.0563 0.01965-0.03007 0.04485-0.06045 0.07591-0.09008 0.06598-0.06297 0.14732-0.1127 0.23042-0.14523 0.03832-0.06166 0.05972-0.13008 0.05972-0.2021 0-0.27271-0.47938-0.67132-0.69616-0.67132z" stroke-width=".49387"/>
   <path id="path223" d="m34.674 49.818c0.71968-1.1885-0.54794-2.7941-1.1803-1.4573-0.28317 0.59863 0.38236 2.0019 1.1803 1.4573z" stroke-width=".49387"/>
   <path id="path225" d="m36.581 49.022c0 0.11821-0.1082 0.21408-0.24165 0.21408-0.13344 0-0.24165-0.09587-0.24165-0.21408 0-0.11825 0.10822-0.2141 0.24165-0.2141 0.13346 0 0.24165 0.09585 0.24165 0.2141z" stroke-width=".3685"/>
  </g>
  <path id="path229" d="m34.888 48.96c0 0.31734-0.26368 0.57465-0.589 0.57465-0.32524 0-0.58896-0.25732-0.58896-0.57465 0-0.31752 0.26372-0.57478 0.58896-0.57478 0.32532 0 0.589 0.25725 0.589 0.57478z" fill="#fff" stroke-width=".49387"/>
 </g>
 <path id="path233" d="m12.178 107c-1.3229 0-2.6458-1.3229-2.6458-2.6458v-59.531c0-1.3229 1.3229-2.6458 2.6458-2.6458h34.396c1.3229 0 2.6458 1.3229 2.6458 2.6458v59.531c0 1.3229-1.3229 2.6458-2.6458 2.6458z" fill="#4d4d4d" stroke="#aaa" stroke-width=".52917"/>
 <path id="path235" d="m14.03 42.924a0.58755 0.58755 0 0 1 0.02072 0.83061 0.58755 0.58755 0 0 1-0.83061 0.02082 0.58755 0.58755 0 0 1-0.02093-0.8306 0.58755 0.58755 0 0 1 0.8306-0.02103" fill="#f0f0f0" opacity=".495" style="paint-order:fill markers stroke"/>
 <rect id="rect237" x="26.73" y="104.35" width="5.2917" height="1.3229" fill="#fff" opacity=".387" style="paint-order:fill markers stroke"/>
 <rect id="rect239" x="12.178" y="44.82" width="34.396" height="58.208" fill="#ebebeb" style="paint-order:fill markers stroke"/>
 <rect id="rect241" x="13.501" y="46.143" width="31.75" height="17.198" fill="#3b9ab4" style="paint-order:fill markers stroke"/>
 <rect id="rect243" x="13.501" y="99.059" width="31.75" height="3.0556" fill="#9cb1bd" style="paint-order:fill markers stroke"/>
 <rect id="rect245" x="14.824" y="85.83" width="5.2917" height="1.3229" fill="#555" style="paint-order:fill markers stroke"/>
 <g id="g257" transform="translate(.27185 7.778)" fill="#828282">
  <rect id="rect247" x="14.552" y="82.021" width="6.6146" height="1.3229" style="paint-order:fill markers stroke"/>
  <rect id="rect249" x="14.552" y="84.667" width="7.9375" height="1.3229" style="paint-order:fill markers stroke"/>
  <rect id="rect251" x="22.49" y="82.021" width="2.6458" height="1.3229" style="paint-order:fill markers stroke"/>
  <rect id="rect253" x="14.552" y="87.313" width="2.6458" height="1.3229" style="paint-order:fill markers stroke"/>
  <rect id="rect255" x="18.521" y="87.313" width="2.6458" height="1.3229" style="paint-order:fill markers stroke"/>
 </g>
 <rect id="rect259" x="25.407" y="85.83" width="6.6146" height="1.3229" fill="#555" style="paint-order:fill markers stroke"/>
 <rect id="rect261" x="21.439" y="85.83" width="2.6458" height="1.3229" fill="#555" style="paint-order:fill markers stroke"/>
 <g id="g269" transform="translate(.27185 7.778)" fill="#fff">
  <rect id="rect263" x="15.875" y="41.01" width="17.198" height="1.3229" opacity=".5" style="paint-order:fill markers stroke"/>
  <rect id="rect265" x="15.875" y="44.979" width="10.583" height="1.3229" opacity=".5" style="paint-order:fill markers stroke"/>
  <rect id="rect267" x="15.875" y="47.625" width="10.583" height="1.3229" opacity=".5" style="paint-order:fill markers stroke"/>
 </g>
 <g id="g291" transform="translate(.27185 7.778)" fill="#828282">
  <rect id="rect271" x="26.458" y="82.021" width="7.9375" height="1.3229" style="paint-order:fill markers stroke"/>
  <rect id="rect273" x="23.813" y="84.667" width="2.6458" height="1.3229" style="paint-order:fill markers stroke"/>
  <rect id="rect275" x="27.781" y="84.667" width="2.6458" height="1.3229" style="paint-order:fill markers stroke"/>
  <rect id="rect277" x="35.719" y="82.021" width="2.6458" height="1.3229" style="paint-order:fill markers stroke"/>
  <rect id="rect279" x="39.688" y="82.021" width="3.9688" height="1.3229" style="paint-order:fill markers stroke"/>
  <rect id="rect281" x="31.75" y="84.667" width="7.9375" height="1.3229" style="paint-order:fill markers stroke"/>
  <rect id="rect283" x="22.49" y="87.313" width="7.9375" height="1.3229" style="paint-order:fill markers stroke"/>
  <rect id="rect285" x="31.75" y="87.313" width="2.6458" height="1.3229" style="paint-order:fill markers stroke"/>
  <rect id="rect287" x="41.01" y="84.667" width="2.6458" height="1.3229" style="paint-order:fill markers stroke"/>
  <rect id="rect289" x="35.719" y="87.313" width="7.9375" height="1.3229" style="paint-order:fill markers stroke"/>
 </g>
 <rect id="rect293" x="35.991" y="100.12" width="7.9375" height="1.3229" fill="#fff" opacity=".5" style="paint-order:fill markers stroke"/>
 <g id="g301" transform="translate(.27185 7.778)" fill="none" stroke="#fff" stroke-width=".52917">
  <path id="path295" d="m38.365 41.01h3.9688" opacity=".5"/>
  <path id="path297" d="m38.365 42.333h3.9688" opacity=".5"/>
  <path id="path299" d="m38.365 43.656h3.9688" opacity=".5"/>
 </g>
 <g id="g315" transform="matrix(.054457 0 0 .054457 14.411 60.11)" stroke="#4d4d4d">
  <path id="path303" d="m189.06 113.34c-2.4719-3.4834-9.0148 32.485-19.687 69.015-2.9343 10.042 1.2375 20.173 2.751 28.959 2.5428 4.4625 5.069 10.977 7.2111 19.095 0.72196 2.7352 1.3511 5.521 1.913 8.3087-5.9333 15.035-9.2823 32.071-9.2823 50.128 0 16.634 2.8543 32.394 7.9386 46.529 9.5773 7.2349 18.871 17.764 26.503 30.85 3.5714 6.1232 6.5215 12.392 8.8725 18.62 12.221 8.9067 26.313 13.997 41.32 13.997 14.173 0 27.527-4.5352 39.264-12.54 2.4316-6.7066 5.2779-13.648 9.4094-20.077 8.1774-12.722 18.26-24.945 28.558-32.35 7.1347-11.357 8.065-28.322 7.401-45.029-0.68959-17.336-3.098-33.755-8.6025-48.348 0.47642-3.5451 1.0683-7.0914 1.8031-10.578 1.8483-8.782 4.2261-15.747 6.7206-20.315 0.9846-8.5915 4.3135-18.515 1.1544-28.119-12.606-38.323-11.005-5.8673-14.675-2.7962-4.6402 3.8841-29.177-34.21-28.211 3.6642 0.10562 4.1314 0.32861 8.167 0.64805 12.091-12.706-9.9065-28.083 2.3259-43.977 2.3259-16.293 0-31.001-11.94-43.915-1.5691 0.1692-4.4362 0.19973-9.0203 0.0795-13.715-0.96689-37.875-7.8256-46.486-23.199-68.147z" fill="#fff" stroke-width="14.735"/>
  <g id="g311" fill="#343a40">
   <path id="path305" d="m255.02 335.4c-6.0701 0-19.973 11.893-19.973 20.029 0 2.2282 0.68715 4.3373 1.9112 6.2301 2.3052 0.96872 4.5419 2.3791 6.3792 4.1327 0.8594 0.81969 1.5692 1.6589 2.1347 2.4933 2.9416 1.1929 6.334 1.8739 9.9462 1.8739 3.4125 0 6.6266-0.60713 9.4509-1.6797 0.58636-0.89726 1.3383-1.8037 2.2648-2.6875 1.9686-1.8788 4.3953-3.3624 6.8746-4.333 1.1434-1.8397 1.7817-3.881 1.7817-6.0298 0-8.1364-14.302-20.029-20.77-20.029z" stroke-width="14.735"/>
   <path id="path307" d="m236.81 294.02c21.472-35.459-16.348-83.364-35.214-43.48-8.4486 17.86 11.408 59.729 35.214 43.48z" stroke-width="14.735"/>
   <path id="path309" d="m293.71 270.28c0 3.5268-3.2281 6.3871-7.2099 6.3871-3.9812 0-7.2099-2.8604-7.2099-6.3871 0-3.528 3.2287-6.3877 7.2099-6.3877 3.9818 0 7.2099 2.8598 7.2099 6.3877z" stroke-width="10.994"/>
  </g>
  <path id="path313" d="m243.22 268.43c0 9.468-7.8671 17.145-17.573 17.145-9.7037 0-17.572-7.6771-17.572-17.145 0-9.4735 7.8683-17.149 17.572-17.149 9.7062 0 17.573 7.6753 17.573 17.149z" fill="#fff" stroke-width="14.735"/>
 </g>
 <g id="g319" transform="translate(0 19.05)" display="none">
  <path id="path317" d="m18.521 34.396h27.781l2.6458 3.9688v58.208l-2.6458 2.6458h-9.2604z" fill="url(#linearGradient1708)" opacity=".159"/>
 </g>
</svg>
