<svg id="svg839" width="500" height="500" version="1.1" viewBox="0 0 132.29 132.29" xmlns="http://www.w3.org/2000/svg">
 <path id="path826" d="m92.181 36.19a39.688 39.688 0 0 1 3.9282 55.981 39.688 39.688 0 0 1-55.98 3.9456 39.688 39.688 0 0 1-3.9628-55.979 39.688 39.688 0 0 1 55.978-3.9802" fill="#4d4d4d" style="paint-order:normal"/>
 <path id="path2" d="m61.889 52.734a1.0697 1.0697 0 0 1 1.0697 1.0697v5.3484h6.4181v-5.3484a1.0697 1.0697 0 0 1 2.1394 0v5.3484h2.1394a1.0697 1.0697 0 0 1 1.0697 1.0697v6.4181a7.4877 7.4877 0 0 1-7.4877 7.4877c-0.0043 0.92849-0.02102 1.8078-0.08555 2.61-0.08773 1.0997-0.26958 2.1458-0.67815 3.0465a4.4499 4.4499 0 0 1-2.0752 2.1992c-0.95844 0.48758-2.1479 0.70185-3.5791 0.70185-2.1351 0-3.4444 0.70588-4.2231 1.536a4.1076 4.1076 0 0 0-1.1253 2.7426h-2.1394c0-1.3178 0.4963-2.9244 1.7051-4.2102 1.2344-1.3092 3.132-2.2078 5.7827-2.2078 1.243 0 2.0581-0.1884 2.6057-0.46816 0.51563-0.26279 0.85575-0.64201 1.0996-1.1766 0.25891-0.56924 0.41286-1.3286 0.49202-2.3319 0.05741-0.72772 0.0752-1.536 0.07924-2.441a7.4877 7.4877 0 0 1-7.4856-7.4881v-6.4181a1.0697 1.0697 0 0 1 1.0697-1.0697h2.1394v-5.3484a1.0697 1.0697 0 0 1 1.0697-1.0697" fill="#fff" stroke-width="2.1394"/>
</svg>
