<svg id="svg839" width="500" height="500" version="1.1" viewBox="0 0 132.29 132.29" xmlns="http://www.w3.org/2000/svg">
 <path id="path826" d="m92.181 36.19a39.688 39.688 0 0 1 3.9282 55.981 39.688 39.688 0 0 1-55.98 3.9456 39.688 39.688 0 0 1-3.9628-55.979 39.688 39.688 0 0 1 55.978-3.9802" fill="#4d4d4d" style="paint-order:normal"/>
 <path id="path855" d="m75.037 69.416c4.9674-5.4812 7.0228-9.9347 7.8793-13.36 0.34255-1.8842 0.34255-3.2545 0.34255-4.2823-0.17131-0.51386-0.17131-0.85642-0.34255-1.199 0-0.17156 0-0.34231-0.17132-0.51386-0.17131-0.34232-0.34255-0.51387-0.68519-0.68543-0.17132 0-0.17132 0-0.34255-0.17156-0.34255 0-0.85644-0.17157-1.199-0.17157-1.0277 0-2.5693 0-4.4535 0.51387-3.2545 0.68543-7.708 2.7406-13.189 7.708l-5.1387 0.51386c-1.3703 0-2.398 0.68543-3.2545 1.5416l-5.1387 5.1387c-0.68519 0.68543-0.17132 1.8842 0.85645 1.7128l4.1109-0.51387c0.51387 0 1.199 0 2.0555 0.34231 0.51387 0.17157 0.85645 0.34232 1.3703 0.51387l0.51387 0.17156c0.34255 1.7129 1.3703 3.4258 2.7406 4.6248 1.199 1.3703 2.9119 2.398 4.6248 2.7406l0.17132 0.51387c0.17132 0.51386 0.34255 0.85642 0.51387 1.3703 0.34255 0.85642 0.34255 1.3703 0.34255 2.0555l-0.68519 4.111c0 1.0277 1.199 1.5415 1.8842 0.85643l5.1387-5.1387c0.85645-0.85642 1.3703-2.0554 1.5416-3.2544zm0.17132-7.8792c-1.5416 1.7128-4.1109 2.0554-5.3099 0.68543-1.3703-1.199-1.0277-3.5971 0.68519-5.3099 1.7129-1.7129 4.2822-2.0555 5.4812-0.85642 1.199 1.3703 0.85644 3.7683-0.85645 5.4813z" fill="#fff"/>
</svg>
