<svg id="svg839" width="500" height="500" version="1.1" viewBox="0 0 132.29 132.29" xmlns="http://www.w3.org/2000/svg">
 <path id="path826" d="m92.181 36.19a39.688 39.688 0 0 1 3.9282 55.981 39.688 39.688 0 0 1-55.98 3.9456 39.688 39.688 0 0 1-3.9628-55.979 39.688 39.688 0 0 1 55.978-3.9802" fill="#4d4d4d" style="paint-order:normal"/>
 <path id="path2" d="m50.069 66.334v-0.38029c2.3463-0.23825 3.4948-1.4358 3.4948-3.7354v-4.1953c0-2.554 0.91051-3.5906 3.1611-3.5906h0.63706v-2.2529h-0.87796c-3.7634 0-5.5376 1.772-5.5376 5.491v3.5579c0 2.5541-0.87796 3.3993-3.4786 3.3993v3.0326c2.6006 0 3.4786 0.84531 3.4786 3.3993v3.5579c0 3.719 1.7719 5.491 5.5376 5.491h0.87796v-2.2506h-0.63706c-2.2506 0-3.1611-1.0365-3.1611-3.5906v-4.1976c0-2.2973-1.1486-3.4948-3.4948-3.7354m32.152-0.38029v0.38294c-2.3463 0.24089-3.4948 1.4382-3.4948 3.7354v4.1976c0 2.554-0.91043 3.5906-3.161 3.5906h-0.63707v2.2505h0.87796c3.7657 0 5.5376-1.7719 5.5376-5.491v-3.5579c0-2.554 0.87795-3.3992 3.4786-3.3992v-3.035c-2.6007 0-3.4786-0.8453-3.4786-3.3993v-3.5579c0-3.719-1.7743-5.491-5.5376-5.491h-0.87796v2.2506h0.63706c2.2506 0 3.161 1.0365 3.161 3.5906v4.1976c0 2.2973 1.1487 3.4948 3.4948 3.7354m-17.244 8.4045v-5.3532l-3.7843 3.7838-1.6506-1.6506 3.782-3.7843h-5.3509v-2.3346h5.3532l-3.7843-3.7843 1.6506-1.6506 3.7843 3.782v-5.3508h2.3346v5.3532l3.7843-3.7843 1.6506 1.6506-3.782 3.7843h5.3508v2.3346h-5.3531l3.7843 3.7843-1.6506 1.6506-3.7843-3.782v5.3508z" fill="#fff" fill-rule="evenodd" stroke-width="2.3346"/>
</svg>
