<svg id="svg839" width="500" height="500" version="1.1" viewBox="0 0 132.29 132.29" xmlns="http://www.w3.org/2000/svg">
 <path id="path826" d="m92.181 36.19a39.688 39.688 0 0 1 3.9282 55.981 39.688 39.688 0 0 1-55.98 3.9456 39.688 39.688 0 0 1-3.9628-55.979 39.688 39.688 0 0 1 55.978-3.9802" fill="#4d4d4d" style="paint-order:normal"/>
 <path id="path2" d="m50.03 51.037a1.0072 1.0072 0 0 1 1.0072-1.0072h10.072a1.0072 1.0072 0 0 1 1.0072 1.0072v10.63l8.3535-8.3213a1.0072 1.0072 0 0 1 1.4242 0l7.1207 7.1227a1.0072 1.0072 0 0 1 0 1.4262l-8.3152 8.2789h10.553a1.0072 1.0072 0 0 1 1.0072 1.0072v10.072a1.0072 1.0072 0 0 1-1.0072 1.0072h-25.179a6.043 6.043 0 0 1-4.2724-1.7706 6.043 6.043 0 0 1-1.7706-4.1838m12.086-0.42329 14.761-14.705-5.6986-5.6966-9.0626 9.0283zm-3.0215 0.33422a3.0215 3.0215 0 1 0-6.043 0 3.0215 3.0215 0 0 0 6.043 0m21.151 4.0287v-8.0574h-11.566l-8.0876 8.0574zm-30.215-29.208v25.169zm0 25.169v8e-3z" fill="#fff" stroke-width="2.0143"/>
</svg>
