<svg id="svg839" width="500" height="500" version="1.1" viewBox="0 0 132.29 132.29" xmlns="http://www.w3.org/2000/svg">
 <path id="path826" d="m92.181 36.19a39.688 39.688 0 0 1 3.9282 55.981 39.688 39.688 0 0 1-55.98 3.9456 39.688 39.688 0 0 1-3.9628-55.979 39.688 39.688 0 0 1 55.978-3.9802" fill="#4d4d4d" style="paint-order:normal"/>
 <g id="g844" transform="matrix(1.9759 0 0 1.9759 50.338 52.165)" fill="#fff">
  <path id="path4" d="m9.438 11.944c0.047 0.596 0.518 1.06 1.363 1.116v0.44h0.375v-0.443c0.875-0.061 1.386-0.529 1.386-1.207 0-0.618-0.39-0.936-1.09-1.1l-0.296-0.07v-1.2c0.376 0.043 0.614 0.248 0.671 0.532h0.658c-0.047-0.575-0.54-1.024-1.329-1.073v-0.439h-0.375v0.45c-0.747 0.073-1.255 0.522-1.255 1.158 0 0.562 0.378 0.92 1.007 1.066l0.248 0.061v1.272c-0.384-0.058-0.639-0.27-0.696-0.563h-0.668zm1.36-1.354c-0.369-0.085-0.569-0.26-0.569-0.522 0-0.294 0.216-0.514 0.572-0.578v1.1zm0.432 0.746c0.449 0.104 0.655 0.272 0.655 0.569 0 0.339-0.257 0.571-0.709 0.614v-1.195z"/>
  <path id="path2" d="m11 15a4 4 0 1 0 0-8 4 4 0 0 0 0 8m5-4a5 5 0 1 1-10 0 5 5 0 0 1 10 0" fill-rule="evenodd"/>
  <path id="path6" d="m1 0a1 1 0 0 0-1 1v8a1 1 0 0 0 1 1h4.083q0.088-0.517 0.258-1h-2.341a2 2 0 0 0-2-2v-4a2 2 0 0 0 2-2h10a2 2 0 0 0 2 2v3.528c0.38 0.34 0.717 0.728 1 1.154v-6.682a1 1 0 0 0-1-1z"/>
  <path id="path8" d="M 9.998,5.083 10,5 A 2,2 0 1 0 6.868,6.65 6,6 0 0 1 9.998,5.083"/>
 </g>
</svg>
