<svg id="svg839" width="500" height="500" version="1.1" viewBox="0 0 132.29 132.29" xmlns="http://www.w3.org/2000/svg">
 <path id="path826" d="m92.181 36.19a39.688 39.688 0 0 1 3.9282 55.981 39.688 39.688 0 0 1-55.98 3.9456 39.688 39.688 0 0 1-3.9628-55.979 39.688 39.688 0 0 1 55.978-3.9802" fill="#4d4d4d" style="paint-order:normal"/>
 <path id="path2" d="m74.119 50.196h-15.949a3.9872 3.9872 0 0 0-3.9872 3.9872v23.923a3.9872 3.9872 0 0 0 3.9872 3.9871h15.949a3.9872 3.9872 0 0 0 3.9872-3.9871v-23.923a3.9872 3.9872 0 0 0-3.9872-3.9872m-13.955 7.9743h11.961a0.99682 0.99682 0 0 1 0 1.9936h-11.961a0.99682 0.99682 0 0 1 0-1.9936m-0.99679 4.984a0.99679 0.99679 0 0 1 0.99679-0.99678h11.961a0.99679 0.99679 0 0 1 0 1.9935h-11.961a0.99679 0.99679 0 0 1-0.99679-0.99677m0.99679 2.9904h11.961a0.99679 0.99679 0 0 1 0 1.9936h-11.961a0.99679 0.99679 0 0 1 0-1.9936m0 3.9871h5.9807a0.99682 0.99682 0 0 1 0 1.9936h-5.9807a0.99682 0.99682 0 0 1 0-1.9936" fill="#fff" stroke-width="1.9936"/>
</svg>
