<svg id="svg839" width="500" height="500" version="1.1" viewBox="0 0 132.29 132.29" xmlns="http://www.w3.org/2000/svg">
 <g id="layer1" transform="translate(0 -164.71)">
  <path id="path826" d="m92.181 200.9a39.688 39.688 0 0 1 3.9282 55.981 39.688 39.688 0 0 1-55.98 3.9456 39.688 39.688 0 0 1-3.9628-55.979 39.688 39.688 0 0 1 55.978-3.9802" fill="#4d4d4d" style="paint-order:normal"/>
  <path id="Auswahl" d="m55.459 216.17 7.4248-1.2738 5.6098-0.55603 1.65-0.15016 3.6299-0.165 5.9398 0.32174c3.1069 0.34814 7.7828 1.546 9.2397 4.6281-0.99328 0.28214-2.5574 0.165-3.6299 0.165l-3.6299 0.16501c-4.5506 7e-3 -10.195 0.23264-14.685 0.82497 0.198 0.31019 0.55439 0.78703 0.58409 1.1533 0.061 0.71773-1.5411 1.9238-2.069 2.3809l-3.4649 3.224c-0.71938 0.68638-1.2094 0.89757-1.65 1.8216l1.65-0.16501h1.485c2.1103-0.15839 4.1777-0.24584 6.2698 0.19965 1.9997 0.42569 3.4418 0.96852 3.4649 3.2652l-11.385 1.4635c-1.4288 0.19965-5.6659 0.78538-6.7648 1.3414-1.1385 0.57584-2.4749 2.5558-3.2521 3.6299-1.1814 1.6351-4.4268 5.9365-5.0835 7.5898l-0.40919 1.65c-0.91408-0.3465-2.6086-1.1929-2.9633-2.1466-0.24419-0.65999 0.11056-1.8084 0.30029-2.4733 0.57418-2.0014 2.4254-4.9631 3.7272-6.5998 0.31514-0.39599 1.48-1.6087 1.5163-2.0261 0.07754-0.89098-1.843-2.6218-0.55438-3.6084 0.77218-0.59233 4.3806-0.87283 5.2337-1.2787 0.73918-0.3498 1.6516-1.3563 2.3099-1.9272l5.2798-4.5572c0.79199-0.64183 2.8841-2.0278 3.2999-2.7719 0 0-5.2799 0.63193-5.2799 0.63193l-4.4549 0.37289-1.9799 0.15015h-3.1349c-0.65503-2e-3 -1.2078 0.028-1.8149-0.27884-1.1104-0.56263-2.008-2.0723-0.94377-3.1217 1.051-1.0395 5.0159-2.1317 6.5536-2.5178 0.86952-0.21944 1.7473-0.53128 2.6399-0.35144 0 0-0.65998 0.98997-0.65998 0.98997z" fill="#fff"/>
 </g>
</svg>
